<?plantuml 1.2026.1?><svg xmlns="http://www.w3.org/2000/svg" xmlns:xlink="http://www.w3.org/1999/xlink" contentStyleType="text/css" data-diagram-type="ACTIVITY" height="2227px" preserveAspectRatio="none" style="width:1240px;height:2227px;background:#FCFCFD;" version="1.1" viewBox="0 0 1240 2227" width="1240px" zoomAndPan="magnify"><title>Activity - osubbillingschedule/BillingSchedule</title><defs/><g><rect fill="#FCFCFD" height="2227" style="stroke:none;stroke-width:1;" width="1240" x="0" y="0"/><g class="title" data-source-line="10"><text fill="#000000" font-family="Helvetica" font-size="14" font-weight="bold" lengthAdjust="spacing" textLength="307.2617" x="465.2534" y="30.7803">Activity - osubbillingschedule/BillingSchedule</text></g><ellipse cx="661.219" cy="55" fill="#1D4ED8" rx="10" ry="10" style="stroke:#222222;stroke-width:1;"/><rect fill="none" height="458" rx="8" ry="8" style="stroke:#000000;stroke-width:1.5;" width="611.1719" x="378.6018" y="75"/><path d="M500.6702,75 L500.6702,82 L490.6702,92 L378.6018,92" fill="none" style="stroke:#000000;stroke-width:1.5;"/><text fill="#000000" font-family="Helvetica" font-size="14" lengthAdjust="spacing" textLength="112.0684" x="381.6018" y="86.7803">Observe and Bind</text><rect fill="#F8FAFC" height="48" rx="8" ry="8" style="stroke:#0F172A;stroke-width:0.5;" width="304.7852" x="508.8264" y="109"/><text fill="#0F172A" font-family="Helvetica" font-size="14" lengthAdjust="spacing" textLength="136.9375" x="518.8264" y="129.7803">Start from shared flow</text><text fill="#0F172A" font-family="Helvetica" font-size="14" lengthAdjust="spacing" textLength="284.7852" x="518.8264" y="143.7803">shared/diagrams/shared-reconcile-activity.svg</text><rect fill="#F8FAFC" height="48" rx="8" ry="8" style="stroke:#0F172A;stroke-width:0.5;" width="290.0469" x="516.1956" y="177"/><text fill="#0F172A" font-family="Helvetica" font-size="14" lengthAdjust="spacing" textLength="270.0469" x="526.1956" y="197.7803">Read desired BillingSchedule spec, tracked</text><text fill="#0F172A" font-family="Helvetica" font-size="14" lengthAdjust="spacing" textLength="148.6611" x="526.1956" y="211.7803">status, and delete intent</text><polygon fill="#E2E8F0" points="531.7532,245,790.6848,245,802.6848,257,790.6848,269,531.7532,269,519.7532,257,531.7532,245" style="stroke:#1D4ED8;stroke-width:0.5;"/><text fill="#0F172A" font-family="Helvetica" font-size="14" lengthAdjust="spacing" textLength="258.9316" x="531.7532" y="260.7803">"Tracked or explicit OCI identity present?"</text><text fill="#000000" font-family="Helvetica" font-size="14" lengthAdjust="spacing" textLength="21.7861" x="497.967" y="253.7803">yes</text><text fill="#000000" font-family="Helvetica" font-size="14" lengthAdjust="spacing" textLength="15.5723" x="802.6848" y="253.7803">no</text><rect fill="#F8FAFC" height="48" rx="8" ry="8" style="stroke:#0F172A;stroke-width:0.5;" width="222.3027" x="398.6018" y="279"/><text fill="#0F172A" font-family="Helvetica" font-size="14" lengthAdjust="spacing" textLength="202.3027" x="408.6018" y="299.7803">Get the current OCI resource via</text><text fill="#0F172A" font-family="Helvetica" font-size="14" lengthAdjust="spacing" textLength="118.2959" x="408.6018" y="313.7803">GetBillingSchedule</text><rect fill="#F8FAFC" height="62" rx="8" ry="8" style="stroke:#0F172A;stroke-width:0.5;" width="279.9092" x="672.7302" y="279"/><text fill="#0F172A" font-family="Helvetica" font-size="14" lengthAdjust="spacing" textLength="259.9092" x="682.7302" y="299.7803">Resolve an existing OCI resource through</text><text fill="#0F172A" font-family="Helvetica" font-size="14" lengthAdjust="spacing" textLength="192.2129" x="682.7302" y="313.7803">ListBillingSchedule using filters</text><text fill="#0F172A" font-family="Helvetica" font-size="14" lengthAdjust="spacing" textLength="138.5098" x="682.7302" y="327.7803">compartment_id, state</text><rect fill="#F8FAFC" height="62" rx="8" ry="8" style="stroke:#0F172A;stroke-width:0.5;" width="314.1777" x="655.5959" y="361"/><text fill="#0F172A" font-family="Helvetica" font-size="14" lengthAdjust="spacing" textLength="174.2959" x="665.5959" y="381.7803">Create the OCI resource via</text><text fill="#0F172A" font-family="Helvetica" font-size="14" lengthAdjust="spacing" textLength="294.1777" x="665.5959" y="395.7803">CreateBillingSchedule when no reusable match</text><text fill="#0F172A" font-family="Helvetica" font-size="14" lengthAdjust="spacing" textLength="49.0342" x="665.5959" y="409.7803">is found</text><rect fill="#F8FAFC" height="48" rx="8" ry="8" style="stroke:#0F172A;stroke-width:0.5;" width="286.8955" x="669.2371" y="443"/><text fill="#0F172A" font-family="Helvetica" font-size="14" lengthAdjust="spacing" textLength="266.8955" x="679.2371" y="463.7803">Persist the resolved or created OCI identity</text><text fill="#0F172A" font-family="Helvetica" font-size="14" lengthAdjust="spacing" textLength="63.8135" x="679.2371" y="477.7803">into status</text><polygon fill="#E2E8F0" points="661.219,497,673.219,509,661.219,521,649.219,509,661.219,497" style="stroke:#1D4ED8;stroke-width:0.5;"/><polygon fill="#E2E8F0" points="599.0427,553,723.3953,553,735.3953,565,723.3953,577,599.0427,577,587.0427,565,599.0427,553" style="stroke:#1D4ED8;stroke-width:0.5;"/><text fill="#0F172A" font-family="Helvetica" font-size="14" lengthAdjust="spacing" textLength="124.3525" x="599.0427" y="568.7803">"Delete requested?"</text><text fill="#000000" font-family="Helvetica" font-size="14" lengthAdjust="spacing" textLength="21.7861" x="565.2566" y="561.7803">yes</text><text fill="#000000" font-family="Helvetica" font-size="14" lengthAdjust="spacing" textLength="15.5723" x="735.3953" y="561.7803">no</text><rect fill="none" height="340" rx="8" ry="8" style="stroke:#000000;stroke-width:1.5;" width="644.4814" x="11" y="587"/><path d="M61.4688,587 L61.4688,594 L51.4688,604 L11,604" fill="none" style="stroke:#000000;stroke-width:1.5;"/><text fill="#000000" font-family="Helvetica" font-size="14" lengthAdjust="spacing" textLength="40.4688" x="14" y="598.7803">Delete</text><rect fill="#F8FAFC" height="62" rx="8" ry="8" style="stroke:#0F172A;stroke-width:0.5;" width="301.6885" x="188.8999" y="621"/><text fill="#0F172A" font-family="Helvetica" font-size="14" lengthAdjust="spacing" textLength="273.9434" x="198.8999" y="641.7803">Delete path uses DeleteBillingSchedule with</text><text fill="#0F172A" font-family="Helvetica" font-size="14" lengthAdjust="spacing" textLength="211.6748" x="198.8999" y="655.7803">required via GetBillingSchedule or</text><text fill="#0F172A" font-family="Helvetica" font-size="14" lengthAdjust="spacing" textLength="281.6885" x="198.8999" y="669.7803">ListBillingSchedule to DELETED confirmation</text><rect fill="#F8FAFC" height="48" rx="8" ry="8" style="stroke:#0F172A;stroke-width:0.5;" width="318.0264" x="180.731" y="718"/><text fill="#0F172A" font-family="Helvetica" font-size="14" lengthAdjust="spacing" textLength="262.2471" x="190.731" y="738.7803">Confirm deletion via GetBillingSchedule or</text><text fill="#0F172A" font-family="Helvetica" font-size="14" lengthAdjust="spacing" textLength="298.0264" x="190.731" y="752.7803">ListBillingSchedule until OCI reaches DELETED</text><polygon fill="#E2E8F0" points="191.5718,795,487.9165,795,499.9165,807,487.9165,819,191.5718,819,179.5718,807,191.5718,795" style="stroke:#1D4ED8;stroke-width:0.5;"/><text fill="#0F172A" font-family="Helvetica" font-size="14" lengthAdjust="spacing" textLength="296.3447" x="191.5718" y="810.7803">"Delete cleanup and finalizer release succeed?"</text><text fill="#000000" font-family="Helvetica" font-size="14" lengthAdjust="spacing" textLength="21.7861" x="157.7856" y="803.7803">yes</text><text fill="#000000" font-family="Helvetica" font-size="14" lengthAdjust="spacing" textLength="15.5723" x="499.9165" y="803.7803">no</text><rect fill="#F8FAFC" height="34" rx="8" ry="8" style="stroke:#0F172A;stroke-width:0.5;" width="293.1436" x="23" y="829"/><text fill="#0F172A" font-family="Helvetica" font-size="14" lengthAdjust="spacing" textLength="273.1436" x="33" y="849.7803">Remove the finalizer after delete completion</text><rect fill="#F8FAFC" height="48" rx="8" ry="8" style="stroke:#0F172A;stroke-width:0.5;" width="251.1299" x="384.3516" y="829"/><text fill="#0F172A" font-family="Helvetica" font-size="14" lengthAdjust="spacing" textLength="231.1299" x="394.3516" y="849.7803">Stay blocked until cleanup or finalizer</text><text fill="#0F172A" font-family="Helvetica" font-size="14" lengthAdjust="spacing" textLength="108.9512" x="394.3516" y="863.7803">release succeeds</text><polygon fill="#E2E8F0" points="339.7441,883,351.7441,895,339.7441,907,327.7441,895,339.7441,883" style="stroke:#1D4ED8;stroke-width:0.5;"/><ellipse cx="339.7441" cy="964.5" fill="none" rx="11" ry="11" style="stroke:#222222;stroke-width:1;"/><ellipse cx="339.7441" cy="964.5" fill="#222222" rx="6" ry="6" style="stroke:#222222;stroke-width:1;"/><rect fill="none" height="427.5" rx="8" ry="8" style="stroke:#000000;stroke-width:1.5;" width="345.916" x="815.7358" y="587"/><path d="M966.5698,587 L966.5698,594 L956.5698,604 L815.7358,604" fill="none" style="stroke:#000000;stroke-width:1.5;"/><text fill="#000000" font-family="Helvetica" font-size="14" lengthAdjust="spacing" textLength="140.834" x="818.7358" y="598.7803">Lifecycle Classification</text><rect fill="#F8FAFC" height="48" rx="8" ry="8" style="stroke:#0F172A;stroke-width:0.5;" width="280.5928" x="842.3975" y="670"/><text fill="#0F172A" font-family="Helvetica" font-size="14" lengthAdjust="spacing" textLength="240.4541" x="852.3975" y="690.7803">Request requeue while OCI remains in</text><text fill="#0F172A" font-family="Helvetica" font-size="14" lengthAdjust="spacing" textLength="260.5928" x="852.3975" y="704.7803">PROVISIONING, UPDATING, DELETING</text><ellipse cx="982.6938" cy="764" fill="none" rx="11" ry="11" style="stroke:#222222;stroke-width:1;"/><ellipse cx="982.6938" cy="764" fill="#222222" rx="6" ry="6" style="stroke:#222222;stroke-width:1;"/><polygon fill="#E2E8F0" points="896.4106,621,1068.9771,621,1080.9771,633,1068.9771,645,896.4106,645,884.4106,633,896.4106,621" style="stroke:#1D4ED8;stroke-width:0.5;"/><text fill="#000000" font-family="Helvetica" font-size="14" lengthAdjust="spacing" textLength="21.7861" x="986.6938" y="655.7803">yes</text><text fill="#0F172A" font-family="Helvetica" font-size="14" lengthAdjust="spacing" textLength="172.5664" x="896.4106" y="636.7803">"OCI state in retryable set?"</text><rect fill="#F8FAFC" height="48" rx="8" ry="8" style="stroke:#0F172A;stroke-width:0.5;" width="293.916" x="835.7358" y="884"/><text fill="#0F172A" font-family="Helvetica" font-size="14" lengthAdjust="spacing" textLength="273.916" x="845.7358" y="904.7803">Return an unsuccessful reconcile result until</text><text fill="#0F172A" font-family="Helvetica" font-size="14" lengthAdjust="spacing" textLength="133.041" x="845.7358" y="918.7803">OCI reaches ACTIVE</text><ellipse cx="982.6938" cy="969.5" fill="none" rx="11" ry="11" style="stroke:#222222;stroke-width:1;"/><ellipse cx="982.6938" cy="969.5" fill="#222222" rx="6" ry="6" style="stroke:#222222;stroke-width:1;"/><polygon fill="#E2E8F0" points="862.1729,835,1103.2148,835,1115.2148,847,1103.2148,859,862.1729,859,850.1729,847,862.1729,835" style="stroke:#1D4ED8;stroke-width:0.5;"/><text fill="#000000" font-family="Helvetica" font-size="14" lengthAdjust="spacing" textLength="21.7861" x="986.6938" y="869.7803">yes</text><text fill="#0F172A" font-family="Helvetica" font-size="14" lengthAdjust="spacing" textLength="241.042" x="862.1729" y="850.7803">"OCI state is outside success targets?"</text><rect fill="none" height="722.5" rx="8" ry="8" style="stroke:#000000;stroke-width:1.5;" width="554.2871" x="675.4814" y="1024.5"/><path d="M841.9014,1024.5 L841.9014,1031.5 L831.9014,1041.5 L675.4814,1041.5" fill="none" style="stroke:#000000;stroke-width:1.5;"/><text fill="#000000" font-family="Helvetica" font-size="14" lengthAdjust="spacing" textLength="156.4199" x="678.4814" y="1036.2803">Ready and Drift Handling</text><rect fill="#F8FAFC" height="48" rx="8" ry="8" style="stroke:#0F172A;stroke-width:0.5;" width="296.2402" x="834.5737" y="1058.5"/><text fill="#0F172A" font-family="Helvetica" font-size="14" lengthAdjust="spacing" textLength="276.2402" x="844.5737" y="1079.2803">Compare live OCI state against the imported</text><text fill="#0F172A" font-family="Helvetica" font-size="14" lengthAdjust="spacing" textLength="75.4824" x="844.5737" y="1093.2803">field surface</text><rect fill="#F8FAFC" height="48" rx="8" ry="8" style="stroke:#0F172A;stroke-width:0.5;" width="302.4473" x="831.4702" y="1175.5"/><text fill="#0F172A" font-family="Helvetica" font-size="14" lengthAdjust="spacing" textLength="282.4473" x="841.4702" y="1196.2803">Reject drift before OCI mutation for force-new</text><text fill="#0F172A" font-family="Helvetica" font-size="14" lengthAdjust="spacing" textLength="136.9512" x="841.4702" y="1210.2803">fields compartment_id</text><ellipse cx="982.6938" cy="1256" fill="none" rx="11" ry="11" style="stroke:#222222;stroke-width:1;"/><ellipse cx="982.6938" cy="1256" fill="#222222" rx="6" ry="6" style="stroke:#222222;stroke-width:1;"/><polygon fill="#E2E8F0" points="857.1108,1126.5,1108.2769,1126.5,1120.2769,1138.5,1108.2769,1150.5,857.1108,1150.5,845.1108,1138.5,857.1108,1126.5" style="stroke:#1D4ED8;stroke-width:0.5;"/><text fill="#000000" font-family="Helvetica" font-size="14" lengthAdjust="spacing" textLength="21.7861" x="986.6938" y="1161.2803">yes</text><text fill="#0F172A" font-family="Helvetica" font-size="14" lengthAdjust="spacing" textLength="251.166" x="857.1108" y="1142.2803">"Force-new or conflicting drift detected?"</text><polygon fill="#E2E8F0" points="872.2661,1309,1093.1216,1309,1105.1216,1321,1093.1216,1333,872.2661,1333,860.2661,1321,872.2661,1309" style="stroke:#1D4ED8;stroke-width:0.5;"/><text fill="#0F172A" font-family="Helvetica" font-size="14" lengthAdjust="spacing" textLength="220.8555" x="872.2661" y="1324.7803">"Supported mutable drift detected?"</text><text fill="#000000" font-family="Helvetica" font-size="14" lengthAdjust="spacing" textLength="21.7861" x="838.48" y="1317.7803">yes</text><text fill="#000000" font-family="Helvetica" font-size="14" lengthAdjust="spacing" textLength="15.5723" x="1105.1216" y="1317.7803">no</text><rect fill="#F8FAFC" height="48" rx="8" ry="8" style="stroke:#0F172A;stroke-width:0.5;" width="303.2813" x="695.4814" y="1343"/><text fill="#0F172A" font-family="Helvetica" font-size="14" lengthAdjust="spacing" textLength="283.2813" x="705.4814" y="1363.7803">Apply UpdateBillingSchedule only for mutable</text><text fill="#0F172A" font-family="Helvetica" font-size="14" lengthAdjust="spacing" textLength="122.958" x="705.4814" y="1377.7803">fields display_name</text><rect fill="#F8FAFC" height="34" rx="8" ry="8" style="stroke:#0F172A;stroke-width:0.5;" width="199.0059" x="1018.7627" y="1343"/><text fill="#0F172A" font-family="Helvetica" font-size="14" lengthAdjust="spacing" textLength="179.0059" x="1028.7627" y="1363.7803">Skip the no-op mutation path</text><polygon fill="#E2E8F0" points="982.6938,1397,994.6938,1409,982.6938,1421,970.6938,1409,982.6938,1397" style="stroke:#1D4ED8;stroke-width:0.5;"/><rect fill="#F8FAFC" height="118" rx="8" ry="8" style="stroke:#0F172A;stroke-width:0.5;" width="334.3164" x="815.5356" y="1441"/><text fill="#0F172A" font-family="Helvetica" font-size="14" lengthAdjust="spacing" textLength="164.2061" x="825.5356" y="1461.7803">Run provider helper hooks</text><text fill="#0F172A" font-family="Helvetica" font-size="14" lengthAdjust="spacing" textLength="219.0508" x="825.5356" y="1475.7803">create=tfresource.CreateResource,</text><text fill="#0F172A" font-family="Helvetica" font-size="14" lengthAdjust="spacing" textLength="314.3164" x="825.5356" y="1489.7803">tfresource.WaitForWorkRequestWithErrorHandling</text><text fill="#0F172A" font-family="Helvetica" font-size="14" lengthAdjust="spacing" textLength="215.5439" x="825.5356" y="1503.7803">entity=template action=CREATED;</text><text fill="#0F172A" font-family="Helvetica" font-size="14" lengthAdjust="spacing" textLength="226.085" x="825.5356" y="1517.7803">update=tfresource.UpdateResource;</text><text fill="#0F172A" font-family="Helvetica" font-size="14" lengthAdjust="spacing" textLength="273.5537" x="825.5356" y="1531.7803">delete=tfresource.DeleteResource when the</text><text fill="#0F172A" font-family="Helvetica" font-size="14" lengthAdjust="spacing" textLength="220.2334" x="825.5356" y="1545.7803">matching field-driven path executes</text><rect fill="#F8FAFC" height="34" rx="8" ry="8" style="stroke:#0F172A;stroke-width:0.5;" width="303.2197" x="831.084" y="1579"/><text fill="#0F172A" font-family="Helvetica" font-size="14" lengthAdjust="spacing" textLength="283.2197" x="841.084" y="1599.7803">Return success for the ACTIVE success state</text><rect fill="#F8FAFC" height="48" rx="8" ry="8" style="stroke:#0F172A;stroke-width:0.5;" width="279.1299" x="843.1289" y="1633"/><text fill="#0F172A" font-family="Helvetica" font-size="14" lengthAdjust="spacing" textLength="259.1299" x="853.1289" y="1653.7803">Project required status and finalizer policy</text><text fill="#0F172A" font-family="Helvetica" font-size="14" lengthAdjust="spacing" textLength="174.3027" x="853.1289" y="1667.7803">retain-until-confirmed-delete</text><rect fill="#F8FAFC" height="34" rx="8" ry="8" style="stroke:#0F172A;stroke-width:0.5;" width="313.4189" x="825.9844" y="1701"/><text fill="#0F172A" font-family="Helvetica" font-size="14" lengthAdjust="spacing" textLength="293.4189" x="835.9844" y="1721.7803">Requeue on provisioning, updating, terminating</text><path d="M692.219,1757 L692.219,1982 L672.219,1986 L692.219,1990 L692.219,2215 A0,0 0 0 0 692.219,2215 L1008.9006,2215 A0,0 0 0 0 1008.9006,2215 L1008.9006,1767 L998.9006,1757 L692.219,1757 A0,0 0 0 0 692.219,1757" fill="#FFF7D6" style="stroke:#B45309;stroke-width:0.5;"/><path d="M998.9006,1757 L998.9006,1767 L1008.9006,1767 L998.9006,1757" fill="#FFF7D6" style="stroke:#B45309;stroke-width:0.5;"/><text fill="#334155" font-family="Helvetica" font-size="14" lengthAdjust="spacing" textLength="101.165" x="698.219" y="1772.7803">shared diagram:</text><text fill="#334155" font-family="Helvetica" font-size="14" lengthAdjust="spacing" textLength="284.7852" x="698.219" y="1786.7803">shared/diagrams/shared-reconcile-activity.svg</text><text fill="#334155" font-family="Helvetica" font-size="14" lengthAdjust="spacing" textLength="265.3438" x="698.219" y="1800.7803">Start from the shared reconcile activity and</text><text fill="#334155" font-family="Helvetica" font-size="14" lengthAdjust="spacing" textLength="273.8955" x="698.219" y="1814.7803">specialize provider-backed CRUD, wait, and</text><text fill="#334155" font-family="Helvetica" font-size="14" lengthAdjust="spacing" textLength="182.875" x="698.219" y="1828.7803">status-projection details here.</text><text fill="#334155" font-family="Helvetica" font-size="14" lengthAdjust="spacing" textLength="229.5371" x="698.219" y="1842.7803">Controller-local activity diagrams add</text><text fill="#334155" font-family="Helvetica" font-size="14" lengthAdjust="spacing" textLength="238.8955" x="698.219" y="1856.7803">list-lookup hints, secret policies, delete</text><text fill="#334155" font-family="Helvetica" font-size="14" lengthAdjust="spacing" textLength="200.0332" x="698.219" y="1870.7803">handling, and open formal gaps.</text><text fill="#334155" font-family="Helvetica" font-size="14" lengthAdjust="spacing" textLength="281.709" x="698.219" y="1884.7803">archetype batch: Generated service-manager</text><text fill="#334155" font-family="Helvetica" font-size="14" lengthAdjust="spacing" textLength="291.0469" x="698.219" y="1898.7803">controllers specialize the shared reconcile path</text><text fill="#334155" font-family="Helvetica" font-size="14" lengthAdjust="spacing" textLength="189.8477" x="698.219" y="1912.7803">with formal runtime ownership.</text><text fill="#334155" font-family="Helvetica" font-size="14" lengthAdjust="spacing" textLength="174.3232" x="698.219" y="1926.7803">service: osubbillingschedule</text><text fill="#334155" font-family="Helvetica" font-size="14" lengthAdjust="spacing" textLength="125.3027" x="698.219" y="1940.7803">slug: billingschedule</text><text fill="#334155" font-family="Helvetica" font-size="14" lengthAdjust="spacing" textLength="129.1924" x="698.219" y="1954.7803">kind: BillingSchedule</text><text fill="#334155" font-family="Helvetica" font-size="14" lengthAdjust="spacing" textLength="241.2402" x="698.219" y="1968.7803">archetype: generated-service-manager</text><text fill="#334155" font-family="Helvetica" font-size="14" lengthAdjust="spacing" textLength="156.4063" x="698.219" y="1982.7803">status/finalizer: required /</text><text fill="#334155" font-family="Helvetica" font-size="14" lengthAdjust="spacing" textLength="174.3027" x="698.219" y="1996.7803">retain-until-confirmed-delete</text><text fill="#334155" font-family="Helvetica" font-size="14" lengthAdjust="spacing" textLength="272.3984" x="698.219" y="2010.7803">requeue: provisioning, updating, terminating</text><text fill="#334155" font-family="Helvetica" font-size="14" lengthAdjust="spacing" textLength="295.6816" x="698.219" y="2024.7803">provider states: create PROVISIONING; update</text><text fill="#334155" font-family="Helvetica" font-size="14" lengthAdjust="spacing" textLength="192.165" x="698.219" y="2038.7803">UPDATING; delete DELETING</text><text fill="#334155" font-family="Helvetica" font-size="14" lengthAdjust="spacing" textLength="183.6611" x="698.219" y="2052.7803">supported drift: display_name</text><text fill="#334155" font-family="Helvetica" font-size="14" lengthAdjust="spacing" textLength="230.3301" x="698.219" y="2066.7803">reject before mutate: force-new fields</text><text fill="#334155" font-family="Helvetica" font-size="14" lengthAdjust="spacing" textLength="100.3789" x="698.219" y="2080.7803">compartment_id</text><text fill="#334155" font-family="Helvetica" font-size="14" lengthAdjust="spacing" textLength="144.751" x="698.219" y="2094.7803">create-only fields: none</text><text fill="#334155" font-family="Helvetica" font-size="14" lengthAdjust="spacing" textLength="66.1445" x="698.219" y="2108.7803">list lookup:</text><text fill="#334155" font-family="Helvetica" font-size="14" lengthAdjust="spacing" textLength="277.8604" x="698.219" y="2122.7803">scaffold_osubbillingschedule_billingschedule</text><text fill="#334155" font-family="Helvetica" font-size="14" lengthAdjust="spacing" textLength="175.8477" x="698.219" y="2136.7803">filters compartment_id, state</text><text fill="#334155" font-family="Helvetica" font-size="14" lengthAdjust="spacing" textLength="89.4961" x="698.219" y="2150.7803">conflicts: none</text><text fill="#334155" font-family="Helvetica" font-size="14" lengthAdjust="spacing" textLength="104.3164" x="698.219" y="2164.7803">open gaps: none</text><text fill="#334155" font-family="Helvetica" font-size="14" lengthAdjust="spacing" textLength="224.9023" x="698.219" y="2178.7803">Scaffold metadata only; replace with</text><text fill="#334155" font-family="Helvetica" font-size="14" lengthAdjust="spacing" textLength="244.3232" x="698.219" y="2192.7803">controller-specific runtime states before</text><text fill="#334155" font-family="Helvetica" font-size="14" lengthAdjust="spacing" textLength="66.1445" x="698.219" y="2206.7803">promotion.</text><ellipse cx="661.219" cy="1986" fill="none" rx="11" ry="11" style="stroke:#222222;stroke-width:1;"/><ellipse cx="661.219" cy="1986" fill="#222222" rx="6" ry="6" style="stroke:#222222;stroke-width:1;"/><line style="stroke:#0F172A;stroke-width:1;" x1="661.219" x2="661.219" y1="157" y2="177"/><polygon fill="#0F172A" points="657.219,167,661.219,177,665.219,167,661.219,171" style="stroke:#0F172A;stroke-width:1;"/><line style="stroke:#0F172A;stroke-width:1;" x1="812.6848" x2="812.6848" y1="341" y2="361"/><polygon fill="#0F172A" points="808.6848,351,812.6848,361,816.6848,351,812.6848,355" style="stroke:#0F172A;stroke-width:1;"/><line style="stroke:#0F172A;stroke-width:1;" x1="812.6848" x2="812.6848" y1="423" y2="443"/><polygon fill="#0F172A" points="808.6848,433,812.6848,443,816.6848,433,812.6848,437" style="stroke:#0F172A;stroke-width:1;"/><line style="stroke:#0F172A;stroke-width:1;" x1="519.7532" x2="509.7532" y1="257" y2="257"/><line style="stroke:#0F172A;stroke-width:1;" x1="509.7532" x2="509.7532" y1="257" y2="279"/><polygon fill="#0F172A" points="505.7532,269,509.7532,279,513.7532,269,509.7532,273" style="stroke:#0F172A;stroke-width:1;"/><line style="stroke:#0F172A;stroke-width:1;" x1="802.6848" x2="812.6848" y1="257" y2="257"/><line style="stroke:#0F172A;stroke-width:1;" x1="812.6848" x2="812.6848" y1="257" y2="279"/><polygon fill="#0F172A" points="808.6848,269,812.6848,279,816.6848,269,812.6848,273" style="stroke:#0F172A;stroke-width:1;"/><line style="stroke:#0F172A;stroke-width:1;" x1="509.7532" x2="509.7532" y1="327" y2="509"/><line style="stroke:#0F172A;stroke-width:1;" x1="509.7532" x2="649.219" y1="509" y2="509"/><polygon fill="#0F172A" points="639.219,505,649.219,509,639.219,513,643.219,509" style="stroke:#0F172A;stroke-width:1;"/><line style="stroke:#0F172A;stroke-width:1;" x1="812.6848" x2="812.6848" y1="491" y2="509"/><line style="stroke:#0F172A;stroke-width:1;" x1="812.6848" x2="673.219" y1="509" y2="509"/><polygon fill="#0F172A" points="683.219,505,673.219,509,683.219,513,679.219,509" style="stroke:#0F172A;stroke-width:1;"/><line style="stroke:#0F172A;stroke-width:1;" x1="661.219" x2="661.219" y1="225" y2="245"/><polygon fill="#0F172A" points="657.219,235,661.219,245,665.219,235,661.219,239" style="stroke:#0F172A;stroke-width:1;"/><line style="stroke:#0F172A;stroke-width:1;" x1="661.219" x2="661.219" y1="65" y2="109"/><polygon fill="#0F172A" points="657.219,99,661.219,109,665.219,99,661.219,103" style="stroke:#0F172A;stroke-width:1;"/><line style="stroke:#0F172A;stroke-width:1;" x1="339.7441" x2="339.7441" y1="683" y2="718"/><polygon fill="#0F172A" points="335.7441,708,339.7441,718,343.7441,708,339.7441,712" style="stroke:#0F172A;stroke-width:1;"/><line style="stroke:#0F172A;stroke-width:1;" x1="179.5718" x2="169.5718" y1="807" y2="807"/><line style="stroke:#0F172A;stroke-width:1;" x1="169.5718" x2="169.5718" y1="807" y2="829"/><polygon fill="#0F172A" points="165.5718,819,169.5718,829,173.5718,819,169.5718,823" style="stroke:#0F172A;stroke-width:1;"/><line style="stroke:#0F172A;stroke-width:1;" x1="499.9165" x2="509.9165" y1="807" y2="807"/><line style="stroke:#0F172A;stroke-width:1;" x1="509.9165" x2="509.9165" y1="807" y2="829"/><polygon fill="#0F172A" points="505.9165,819,509.9165,829,513.9165,819,509.9165,823" style="stroke:#0F172A;stroke-width:1;"/><line style="stroke:#0F172A;stroke-width:1;" x1="169.5718" x2="169.5718" y1="863" y2="895"/><line style="stroke:#0F172A;stroke-width:1;" x1="169.5718" x2="327.7441" y1="895" y2="895"/><polygon fill="#0F172A" points="317.7441,891,327.7441,895,317.7441,899,321.7441,895" style="stroke:#0F172A;stroke-width:1;"/><line style="stroke:#0F172A;stroke-width:1;" x1="509.9165" x2="509.9165" y1="877" y2="895"/><line style="stroke:#0F172A;stroke-width:1;" x1="509.9165" x2="351.7441" y1="895" y2="895"/><polygon fill="#0F172A" points="361.7441,891,351.7441,895,361.7441,899,357.7441,895" style="stroke:#0F172A;stroke-width:1;"/><line style="stroke:#0F172A;stroke-width:1;" x1="339.7441" x2="339.7441" y1="766" y2="795"/><polygon fill="#0F172A" points="335.7441,785,339.7441,795,343.7441,785,339.7441,789" style="stroke:#0F172A;stroke-width:1;"/><line style="stroke:#0F172A;stroke-width:1;" x1="339.7441" x2="339.7441" y1="907" y2="953.5"/><polygon fill="#0F172A" points="335.7441,943.5,339.7441,953.5,343.7441,943.5,339.7441,947.5" style="stroke:#0F172A;stroke-width:1;"/><line style="stroke:#0F172A;stroke-width:1;" x1="982.6938" x2="982.6938" y1="718" y2="753"/><polygon fill="#0F172A" points="978.6938,743,982.6938,753,986.6938,743,982.6938,747" style="stroke:#0F172A;stroke-width:1;"/><line style="stroke:#0F172A;stroke-width:1;" x1="982.6938" x2="982.6938" y1="645" y2="670"/><polygon fill="#0F172A" points="978.6938,660,982.6938,670,986.6938,660,982.6938,664" style="stroke:#0F172A;stroke-width:1;"/><line style="stroke:#0F172A;stroke-width:1;" x1="1080.9771" x2="1132.9902" y1="633" y2="633"/><polygon fill="#0F172A" points="1128.9902,709.5,1132.9902,719.5,1136.9902,709.5,1132.9902,713.5" style="stroke:#0F172A;stroke-width:1;"/><line style="stroke:#0F172A;stroke-width:1;" x1="1132.9902" x2="1132.9902" y1="633" y2="800"/><line style="stroke:#0F172A;stroke-width:1;" x1="1132.9902" x2="982.6938" y1="800" y2="800"/><line style="stroke:#0F172A;stroke-width:1;" x1="982.6938" x2="982.6938" y1="800" y2="835"/><polygon fill="#0F172A" points="978.6938,825,982.6938,835,986.6938,825,982.6938,829" style="stroke:#0F172A;stroke-width:1;"/><line style="stroke:#0F172A;stroke-width:1;" x1="982.6938" x2="982.6938" y1="932" y2="958.5"/><polygon fill="#0F172A" points="978.6938,948.5,982.6938,958.5,986.6938,948.5,982.6938,952.5" style="stroke:#0F172A;stroke-width:1;"/><line style="stroke:#0F172A;stroke-width:1;" x1="982.6938" x2="982.6938" y1="859" y2="884"/><polygon fill="#0F172A" points="978.6938,874,982.6938,884,986.6938,874,982.6938,878" style="stroke:#0F172A;stroke-width:1;"/><line style="stroke:#0F172A;stroke-width:1;" x1="1115.2148" x2="1139.6519" y1="847" y2="847"/><polygon fill="#0F172A" points="1135.6519,923.5,1139.6519,933.5,1143.6519,923.5,1139.6519,927.5" style="stroke:#0F172A;stroke-width:1;"/><line style="stroke:#0F172A;stroke-width:1;" x1="1139.6519" x2="1139.6519" y1="847" y2="1002.5"/><line style="stroke:#0F172A;stroke-width:1;" x1="1139.6519" x2="982.6938" y1="1002.5" y2="1002.5"/><line style="stroke:#0F172A;stroke-width:1;" x1="982.6938" x2="982.6938" y1="1002.5" y2="1058.5"/><polygon fill="#0F172A" points="978.6938,1048.5,982.6938,1058.5,986.6938,1048.5,982.6938,1052.5" style="stroke:#0F172A;stroke-width:1;"/><line style="stroke:#0F172A;stroke-width:1;" x1="982.6938" x2="982.6938" y1="1223.5" y2="1245"/><polygon fill="#0F172A" points="978.6938,1235,982.6938,1245,986.6938,1235,982.6938,1239" style="stroke:#0F172A;stroke-width:1;"/><line style="stroke:#0F172A;stroke-width:1;" x1="982.6938" x2="982.6938" y1="1150.5" y2="1175.5"/><polygon fill="#0F172A" points="978.6938,1165.5,982.6938,1175.5,986.6938,1165.5,982.6938,1169.5" style="stroke:#0F172A;stroke-width:1;"/><line style="stroke:#0F172A;stroke-width:1;" x1="1120.2769" x2="1143.9175" y1="1138.5" y2="1138.5"/><polygon fill="#0F172A" points="1139.9175,1215,1143.9175,1225,1147.9175,1215,1143.9175,1219" style="stroke:#0F172A;stroke-width:1;"/><line style="stroke:#0F172A;stroke-width:1;" x1="1143.9175" x2="1143.9175" y1="1138.5" y2="1289"/><line style="stroke:#0F172A;stroke-width:1;" x1="1143.9175" x2="982.6938" y1="1289" y2="1289"/><line style="stroke:#0F172A;stroke-width:1;" x1="982.6938" x2="982.6938" y1="1289" y2="1309"/><polygon fill="#0F172A" points="978.6938,1299,982.6938,1309,986.6938,1299,982.6938,1303" style="stroke:#0F172A;stroke-width:1;"/><line style="stroke:#0F172A;stroke-width:1;" x1="982.6938" x2="982.6938" y1="1106.5" y2="1126.5"/><polygon fill="#0F172A" points="978.6938,1116.5,982.6938,1126.5,986.6938,1116.5,982.6938,1120.5" style="stroke:#0F172A;stroke-width:1;"/><line style="stroke:#0F172A;stroke-width:1;" x1="860.2661" x2="847.1221" y1="1321" y2="1321"/><line style="stroke:#0F172A;stroke-width:1;" x1="847.1221" x2="847.1221" y1="1321" y2="1343"/><polygon fill="#0F172A" points="843.1221,1333,847.1221,1343,851.1221,1333,847.1221,1337" style="stroke:#0F172A;stroke-width:1;"/><line style="stroke:#0F172A;stroke-width:1;" x1="1105.1216" x2="1118.2656" y1="1321" y2="1321"/><line style="stroke:#0F172A;stroke-width:1;" x1="1118.2656" x2="1118.2656" y1="1321" y2="1343"/><polygon fill="#0F172A" points="1114.2656,1333,1118.2656,1343,1122.2656,1333,1118.2656,1337" style="stroke:#0F172A;stroke-width:1;"/><line style="stroke:#0F172A;stroke-width:1;" x1="847.1221" x2="847.1221" y1="1391" y2="1409"/><line style="stroke:#0F172A;stroke-width:1;" x1="847.1221" x2="970.6938" y1="1409" y2="1409"/><polygon fill="#0F172A" points="960.6938,1405,970.6938,1409,960.6938,1413,964.6938,1409" style="stroke:#0F172A;stroke-width:1;"/><line style="stroke:#0F172A;stroke-width:1;" x1="1118.2656" x2="1118.2656" y1="1377" y2="1409"/><line style="stroke:#0F172A;stroke-width:1;" x1="1118.2656" x2="994.6938" y1="1409" y2="1409"/><polygon fill="#0F172A" points="1004.6938,1405,994.6938,1409,1004.6938,1413,1000.6938,1409" style="stroke:#0F172A;stroke-width:1;"/><line style="stroke:#0F172A;stroke-width:1;" x1="982.6938" x2="982.6938" y1="1421" y2="1441"/><polygon fill="#0F172A" points="978.6938,1431,982.6938,1441,986.6938,1431,982.6938,1435" style="stroke:#0F172A;stroke-width:1;"/><line style="stroke:#0F172A;stroke-width:1;" x1="982.6938" x2="982.6938" y1="1559" y2="1579"/><polygon fill="#0F172A" points="978.6938,1569,982.6938,1579,986.6938,1569,982.6938,1573" style="stroke:#0F172A;stroke-width:1;"/><line style="stroke:#0F172A;stroke-width:1;" x1="982.6938" x2="982.6938" y1="1613" y2="1633"/><polygon fill="#0F172A" points="978.6938,1623,982.6938,1633,986.6938,1623,982.6938,1627" style="stroke:#0F172A;stroke-width:1;"/><line style="stroke:#0F172A;stroke-width:1;" x1="982.6938" x2="982.6938" y1="1681" y2="1701"/><polygon fill="#0F172A" points="978.6938,1691,982.6938,1701,986.6938,1691,982.6938,1695" style="stroke:#0F172A;stroke-width:1;"/><line style="stroke:#0F172A;stroke-width:1;" x1="587.0427" x2="339.7441" y1="565" y2="565"/><line style="stroke:#0F172A;stroke-width:1;" x1="339.7441" x2="339.7441" y1="565" y2="621"/><polygon fill="#0F172A" points="335.7441,611,339.7441,621,343.7441,611,339.7441,615" style="stroke:#0F172A;stroke-width:1;"/><line style="stroke:#0F172A;stroke-width:1;" x1="735.3953" x2="982.6938" y1="565" y2="565"/><line style="stroke:#0F172A;stroke-width:1;" x1="982.6938" x2="982.6938" y1="565" y2="621"/><polygon fill="#0F172A" points="978.6938,611,982.6938,621,986.6938,611,982.6938,615" style="stroke:#0F172A;stroke-width:1;"/><line style="stroke:#0F172A;stroke-width:1;" x1="982.6938" x2="982.6938" y1="1735" y2="1752"/><line style="stroke:#0F172A;stroke-width:1;" x1="982.6938" x2="661.219" y1="1752" y2="1752"/><line style="stroke:#0F172A;stroke-width:1;" x1="661.219" x2="661.219" y1="1752" y2="1975"/><polygon fill="#0F172A" points="657.219,1965,661.219,1975,665.219,1965,661.219,1969" style="stroke:#0F172A;stroke-width:1;"/><line style="stroke:#0F172A;stroke-width:1;" x1="661.219" x2="661.219" y1="521" y2="553"/><polygon fill="#0F172A" points="657.219,543,661.219,553,665.219,543,661.219,547" style="stroke:#0F172A;stroke-width:1;"/><?plantuml-src bLTTRziu47pNho1oBorW9qs_JqPnI9sq3L0qGPAsBmO2MbpPlD2aZgISyntwtsz8Ih8i6yKLGH19N2vtPsU76_SWTSKjNp6tvC8yIhrW9LUECjUjp7dniB2crc9gbB7ijxB0Z-XP22fvhVm7e_qNlYBsYTIQl2puOPjR-G-nqvUzHMwjUMoyFojFtpplxzJ6q_kz6ChoZNWzj39Ma6qivYzVlNZs-y0Y7D-iltZnylJLgzvwT5yOgycoqzUPbruHEokyN4k_OMDcN3sVIwM0aIkM96f59-_J-stpta-ftVXlnWv0-BRaPH5M-Y4tgJDMRiFilWd9LqQBFIJeERqjd_KC-XvFnKiIRxUB7muuTfvRFxIdpdzdD-S3hp-ok3L3mW1B6isEhkQEx9eOruAzbreS8VtyDbYnqfh8Cak2bSeypdHwEK5e2o3cJjBxs59XT24LZLiCZzrwCSdo6-82F78ok1WWprn5nOXv2tX8mBVdldQZ68WWHPwOr9wqdsIoP4-Exf8XGphqTwLa8JsxcbuoAM0JobPPSdZyu-WfyqlIxCc6tDCi_qW-lBEYjXRBSGyiJMqBOcl9PneMWzWc6Q6Zs1DjdeOad54H8HmidGyTj-F4Br7TnNAcFsDrc6NjOeTAvScwcIxCAe2_GYJtKen2AJsEowUMy103tGymBGuzFuOajO5jxVWS7rRS5uX2Eh0HR8FNQvo9cA9RczA801RHeTZ13nkrDooL0G1e8KiG9c9_dkfXwQ-Q73OECExHALb64ZMRAkwNG84SIn_sqf0UGGVNaIL8cEqN144VXXSHdrzylhYxE6VWO2ajG40W0T7qchWKOlj5ppLGKKqnE3wwzg393YQ58gxhAjAsb9ehIAN55dm6WrnT5BI75oYrCkjKxUqUNe8YBVK3JrBSErn4OsxON9dO2Id2DW2KjVCLyDm9e5TGvqtLSzchtMTPKh61FpPLt3bPuZu8Aw6QCUK0HYGiEXCfUhk9l7FaznECJ4cCgGDNeGuDc2ikjOE7cRw-kVfsUNjvzUNooySH-tfzVdONdoBGU9eqmSR8Xn4uPchlmDwKetCCehKWx_PZyRNLeNrhtPYMjMATQ8NEm3sNu9pfViNFfdUNtovsmlZHHopesoQM_jpAqhDFU0maYloVnbOdfkGwfPu2vukGV-f9kQgCzK7zIabA81DRye8QXdqmK82nfiVOig0pH2-gZuY72V2ay8V8zIU-DqPpAerDnwzg7yi9TR3XD_bkZdPiLvdseR-jgnHiT1Jg_lCmpgfARTZNIXoGBgEn5C9eN7L12EagnJVt6aF9Bl4VP1KXqsPigcqkGLrQRkStDJvOimOfB5kIgi8VOnw2xaR5U-VBLbcFawZUDA-ZcUwjVUSISu_zRkn3m-JlKAaBp3osBV5C9zbyvmcT6WjRX8ZUJMykpe9ApD2KOd1cGgCz4oQfs_icILPQaoJoo7kcexgdkmHGZG7-cbB-k9Qeg3svIKVsjYK2nW6rHEJkStlhN5iJkTAfRrB_WPXL1iJR14tneEuuzicuKLlS_Yc7ITFqTQXkge8370Xun28GyGaAjuBVy391AwMwHQQ5MOzPkLZwh1avcYaZptvfwiXwiql8l76sxVPkp4EIMPX1P4op8yvudkQCwStNyn5x11D6oJH2CwuIP85x8k2X79XcwJZ3VUEjKGeUeCzSRGzg0sTSY4pXge61UO1aevmU4uyZiDCdc2NXGq8qMpPKIpEHgIYsxWgk5xnonnctw2U_gGY37hYHutR391mlzZ3JIJJuYck-89iLNN2EzN8-252WL1PkvVOq6ogEVnBC8zoxfQoEiyP_VcZ4pfog5paRViMSBVBX4BZD8MUBDlhnCFe4_Kd7o7nBs9FifwpCcWie_p-Cp3hjYFtXycPEOlrxQfBsKjPULvFsocvlhSnrIXaLCjzHDKGKMwuHvYXa2A_JuzJUBjkLuon5Cax26IroIA6co2UM-8HEANXP6YNk3vJbVbYGPYPb1qVIhBrlsdCY_GBlclVRvYYs0lu0X4THdw0oIBL8OrsFTkF8EamK7PiInWqE0VgL2Lrr74GX_kVt7m00?></g></svg>