<?plantuml 1.2026.1?><svg xmlns="http://www.w3.org/2000/svg" xmlns:xlink="http://www.w3.org/1999/xlink" contentStyleType="text/css" data-diagram-type="ACTIVITY" height="2243px" preserveAspectRatio="none" style="width:1266px;height:2243px;background:#FCFCFD;" version="1.1" viewBox="0 0 1266 2243" width="1266px" zoomAndPan="magnify"><title>Activity - jmsutils/PerformanceTuningAnalysis</title><defs/><g><rect fill="#FCFCFD" height="2243" style="stroke:none;stroke-width:1;" width="1266" x="0" y="0"/><g class="title" data-source-line="10"><text fill="#000000" font-family="Helvetica" font-size="14" font-weight="bold" lengthAdjust="spacing" textLength="309.6338" x="476.895" y="30.7803">Activity - jmsutils/PerformanceTuningAnalysis</text></g><ellipse cx="670.8397" cy="55" fill="#1D4ED8" rx="10" ry="10" style="stroke:#222222;stroke-width:1;"/><rect fill="none" height="458" rx="8" ry="8" style="stroke:#000000;stroke-width:1.5;" width="601.0444" x="388.2225" y="75"/><path d="M510.2909,75 L510.2909,82 L500.2909,92 L388.2225,92" fill="none" style="stroke:#000000;stroke-width:1.5;"/><text fill="#000000" font-family="Helvetica" font-size="14" lengthAdjust="spacing" textLength="112.0684" x="391.2225" y="86.7803">Observe and Bind</text><rect fill="#F8FAFC" height="48" rx="8" ry="8" style="stroke:#0F172A;stroke-width:0.5;" width="304.7852" x="518.4471" y="109"/><text fill="#0F172A" font-family="Helvetica" font-size="14" lengthAdjust="spacing" textLength="136.9375" x="528.4471" y="129.7803">Start from shared flow</text><text fill="#0F172A" font-family="Helvetica" font-size="14" lengthAdjust="spacing" textLength="284.7852" x="528.4471" y="143.7803">shared/diagrams/shared-reconcile-activity.svg</text><rect fill="#F8FAFC" height="48" rx="8" ry="8" style="stroke:#0F172A;stroke-width:0.5;" width="319.5986" x="511.0404" y="177"/><text fill="#0F172A" font-family="Helvetica" font-size="14" lengthAdjust="spacing" textLength="299.5986" x="521.0404" y="197.7803">Read desired PerformanceTuningAnalysis spec,</text><text fill="#0F172A" font-family="Helvetica" font-size="14" lengthAdjust="spacing" textLength="198.4609" x="521.0404" y="211.7803">tracked status, and delete intent</text><polygon fill="#E2E8F0" points="541.3739,245,800.3055,245,812.3055,257,800.3055,269,541.3739,269,529.3739,257,541.3739,245" style="stroke:#1D4ED8;stroke-width:0.5;"/><text fill="#0F172A" font-family="Helvetica" font-size="14" lengthAdjust="spacing" textLength="258.9316" x="541.3739" y="260.7803">"Tracked or explicit OCI identity present?"</text><text fill="#000000" font-family="Helvetica" font-size="14" lengthAdjust="spacing" textLength="21.7861" x="507.5878" y="253.7803">yes</text><text fill="#000000" font-family="Helvetica" font-size="14" lengthAdjust="spacing" textLength="15.5723" x="812.3055" y="253.7803">no</text><rect fill="#F8FAFC" height="48" rx="8" ry="8" style="stroke:#0F172A;stroke-width:0.5;" width="222.3027" x="408.2225" y="279"/><text fill="#0F172A" font-family="Helvetica" font-size="14" lengthAdjust="spacing" textLength="202.3027" x="418.2225" y="299.7803">Get the current OCI resource via</text><text fill="#0F172A" font-family="Helvetica" font-size="14" lengthAdjust="spacing" textLength="197.6475" x="418.2225" y="313.7803">GetPerformanceTuningAnalysis</text><rect fill="#F8FAFC" height="62" rx="8" ry="8" style="stroke:#0F172A;stroke-width:0.5;" width="291.5645" x="676.5233" y="279"/><text fill="#0F172A" font-family="Helvetica" font-size="14" lengthAdjust="spacing" textLength="259.9092" x="686.5233" y="299.7803">Resolve an existing OCI resource through</text><text fill="#0F172A" font-family="Helvetica" font-size="14" lengthAdjust="spacing" textLength="271.5645" x="686.5233" y="313.7803">ListPerformanceTuningAnalysis using filters</text><text fill="#0F172A" font-family="Helvetica" font-size="14" lengthAdjust="spacing" textLength="138.5098" x="686.5233" y="327.7803">compartment_id, state</text><rect fill="#F8FAFC" height="62" rx="8" ry="8" style="stroke:#0F172A;stroke-width:0.5;" width="293.9229" x="675.3441" y="361"/><text fill="#0F172A" font-family="Helvetica" font-size="14" lengthAdjust="spacing" textLength="174.2959" x="685.3441" y="381.7803">Create the OCI resource via</text><text fill="#0F172A" font-family="Helvetica" font-size="14" lengthAdjust="spacing" textLength="273.9229" x="685.3441" y="395.7803">CreatePerformanceTuningAnalysis when no</text><text fill="#0F172A" font-family="Helvetica" font-size="14" lengthAdjust="spacing" textLength="148.6406" x="685.3441" y="409.7803">reusable match is found</text><rect fill="#F8FAFC" height="48" rx="8" ry="8" style="stroke:#0F172A;stroke-width:0.5;" width="286.8955" x="678.8578" y="443"/><text fill="#0F172A" font-family="Helvetica" font-size="14" lengthAdjust="spacing" textLength="266.8955" x="688.8578" y="463.7803">Persist the resolved or created OCI identity</text><text fill="#0F172A" font-family="Helvetica" font-size="14" lengthAdjust="spacing" textLength="63.8135" x="688.8578" y="477.7803">into status</text><polygon fill="#E2E8F0" points="670.8397,497,682.8397,509,670.8397,521,658.8397,509,670.8397,497" style="stroke:#1D4ED8;stroke-width:0.5;"/><polygon fill="#E2E8F0" points="608.6635,553,733.016,553,745.016,565,733.016,577,608.6635,577,596.6635,565,608.6635,553" style="stroke:#1D4ED8;stroke-width:0.5;"/><text fill="#0F172A" font-family="Helvetica" font-size="14" lengthAdjust="spacing" textLength="124.3525" x="608.6635" y="568.7803">"Delete requested?"</text><text fill="#000000" font-family="Helvetica" font-size="14" lengthAdjust="spacing" textLength="21.7861" x="574.8773" y="561.7803">yes</text><text fill="#000000" font-family="Helvetica" font-size="14" lengthAdjust="spacing" textLength="15.5723" x="745.016" y="561.7803">no</text><rect fill="none" height="395.5" rx="8" ry="8" style="stroke:#000000;stroke-width:1.5;" width="644.4814" x="11" y="587"/><path d="M61.4688,587 L61.4688,594 L51.4688,604 L11,604" fill="none" style="stroke:#000000;stroke-width:1.5;"/><text fill="#000000" font-family="Helvetica" font-size="14" lengthAdjust="spacing" textLength="40.4688" x="14" y="598.7803">Delete</text><rect fill="#F8FAFC" height="90" rx="8" ry="8" style="stroke:#0F172A;stroke-width:0.5;" width="319.5918" x="179.9482" y="621"/><text fill="#0F172A" font-family="Helvetica" font-size="14" lengthAdjust="spacing" textLength="105.0684" x="189.9482" y="641.7803">Delete path uses</text><text fill="#0F172A" font-family="Helvetica" font-size="14" lengthAdjust="spacing" textLength="299.5918" x="189.9482" y="655.7803">DeletePerformanceTuningAnalysis with required</text><text fill="#0F172A" font-family="Helvetica" font-size="14" lengthAdjust="spacing" textLength="235.7715" x="189.9482" y="669.7803">via GetPerformanceTuningAnalysis or</text><text fill="#0F172A" font-family="Helvetica" font-size="14" lengthAdjust="spacing" textLength="280.8955" x="189.9482" y="683.7803">ListPerformanceTuningAnalysis to DELETED</text><text fill="#0F172A" font-family="Helvetica" font-size="14" lengthAdjust="spacing" textLength="76.2549" x="189.9482" y="697.7803">confirmation</text><rect fill="#F8FAFC" height="76" rx="8" ry="8" style="stroke:#0F172A;stroke-width:0.5;" width="275.2197" x="202.1343" y="739.5"/><text fill="#0F172A" font-family="Helvetica" font-size="14" lengthAdjust="spacing" textLength="123.7236" x="212.1343" y="760.2803">Confirm deletion via</text><text fill="#0F172A" font-family="Helvetica" font-size="14" lengthAdjust="spacing" textLength="213.9854" x="212.1343" y="774.2803">GetPerformanceTuningAnalysis or</text><text fill="#0F172A" font-family="Helvetica" font-size="14" lengthAdjust="spacing" textLength="255.2197" x="212.1343" y="788.2803">ListPerformanceTuningAnalysis until OCI</text><text fill="#0F172A" font-family="Helvetica" font-size="14" lengthAdjust="spacing" textLength="118.2686" x="212.1343" y="802.2803">reaches DELETED</text><polygon fill="#E2E8F0" points="191.5718,850.5,487.9165,850.5,499.9165,862.5,487.9165,874.5,191.5718,874.5,179.5718,862.5,191.5718,850.5" style="stroke:#1D4ED8;stroke-width:0.5;"/><text fill="#0F172A" font-family="Helvetica" font-size="14" lengthAdjust="spacing" textLength="296.3447" x="191.5718" y="866.2803">"Delete cleanup and finalizer release succeed?"</text><text fill="#000000" font-family="Helvetica" font-size="14" lengthAdjust="spacing" textLength="21.7861" x="157.7856" y="859.2803">yes</text><text fill="#000000" font-family="Helvetica" font-size="14" lengthAdjust="spacing" textLength="15.5723" x="499.9165" y="859.2803">no</text><rect fill="#F8FAFC" height="34" rx="8" ry="8" style="stroke:#0F172A;stroke-width:0.5;" width="293.1436" x="23" y="884.5"/><text fill="#0F172A" font-family="Helvetica" font-size="14" lengthAdjust="spacing" textLength="273.1436" x="33" y="905.2803">Remove the finalizer after delete completion</text><rect fill="#F8FAFC" height="48" rx="8" ry="8" style="stroke:#0F172A;stroke-width:0.5;" width="251.1299" x="384.3516" y="884.5"/><text fill="#0F172A" font-family="Helvetica" font-size="14" lengthAdjust="spacing" textLength="231.1299" x="394.3516" y="905.2803">Stay blocked until cleanup or finalizer</text><text fill="#0F172A" font-family="Helvetica" font-size="14" lengthAdjust="spacing" textLength="108.9512" x="394.3516" y="919.2803">release succeeds</text><polygon fill="#E2E8F0" points="339.7441,938.5,351.7441,950.5,339.7441,962.5,327.7441,950.5,339.7441,938.5" style="stroke:#1D4ED8;stroke-width:0.5;"/><ellipse cx="339.7441" cy="1019.5" fill="none" rx="11" ry="11" style="stroke:#222222;stroke-width:1;"/><ellipse cx="339.7441" cy="1019.5" fill="#222222" rx="6" ry="6" style="stroke:#222222;stroke-width:1;"/><rect fill="none" height="443.5" rx="8" ry="8" style="stroke:#000000;stroke-width:1.5;" width="345.916" x="834.9773" y="587"/><path d="M985.8113,587 L985.8113,594 L975.8113,604 L834.9773,604" fill="none" style="stroke:#000000;stroke-width:1.5;"/><text fill="#000000" font-family="Helvetica" font-size="14" lengthAdjust="spacing" textLength="140.834" x="837.9773" y="598.7803">Lifecycle Classification</text><rect fill="#F8FAFC" height="48" rx="8" ry="8" style="stroke:#0F172A;stroke-width:0.5;" width="280.5928" x="861.6389" y="670"/><text fill="#0F172A" font-family="Helvetica" font-size="14" lengthAdjust="spacing" textLength="240.4541" x="871.6389" y="690.7803">Request requeue while OCI remains in</text><text fill="#0F172A" font-family="Helvetica" font-size="14" lengthAdjust="spacing" textLength="260.5928" x="871.6389" y="704.7803">PROVISIONING, UPDATING, DELETING</text><ellipse cx="1001.9353" cy="757.5" fill="none" rx="11" ry="11" style="stroke:#222222;stroke-width:1;"/><ellipse cx="1001.9353" cy="757.5" fill="#222222" rx="6" ry="6" style="stroke:#222222;stroke-width:1;"/><polygon fill="#E2E8F0" points="915.6521,621,1088.2185,621,1100.2185,633,1088.2185,645,915.6521,645,903.6521,633,915.6521,621" style="stroke:#1D4ED8;stroke-width:0.5;"/><text fill="#000000" font-family="Helvetica" font-size="14" lengthAdjust="spacing" textLength="21.7861" x="1005.9353" y="655.7803">yes</text><text fill="#0F172A" font-family="Helvetica" font-size="14" lengthAdjust="spacing" textLength="172.5664" x="915.6521" y="636.7803">"OCI state in retryable set?"</text><rect fill="#F8FAFC" height="48" rx="8" ry="8" style="stroke:#0F172A;stroke-width:0.5;" width="293.916" x="854.9773" y="883.5"/><text fill="#0F172A" font-family="Helvetica" font-size="14" lengthAdjust="spacing" textLength="273.916" x="864.9773" y="904.2803">Return an unsuccessful reconcile result until</text><text fill="#0F172A" font-family="Helvetica" font-size="14" lengthAdjust="spacing" textLength="133.041" x="864.9773" y="918.2803">OCI reaches ACTIVE</text><ellipse cx="1001.9353" cy="977.5" fill="none" rx="11" ry="11" style="stroke:#222222;stroke-width:1;"/><ellipse cx="1001.9353" cy="977.5" fill="#222222" rx="6" ry="6" style="stroke:#222222;stroke-width:1;"/><polygon fill="#E2E8F0" points="881.4143,834.5,1122.4563,834.5,1134.4563,846.5,1122.4563,858.5,881.4143,858.5,869.4143,846.5,881.4143,834.5" style="stroke:#1D4ED8;stroke-width:0.5;"/><text fill="#000000" font-family="Helvetica" font-size="14" lengthAdjust="spacing" textLength="21.7861" x="1005.9353" y="869.2803">yes</text><text fill="#0F172A" font-family="Helvetica" font-size="14" lengthAdjust="spacing" textLength="241.042" x="881.4143" y="850.2803">"OCI state is outside success targets?"</text><rect fill="none" height="722.5" rx="8" ry="8" style="stroke:#000000;stroke-width:1.5;" width="579.9424" x="675.4814" y="1040.5"/><path d="M841.9014,1040.5 L841.9014,1047.5 L831.9014,1057.5 L675.4814,1057.5" fill="none" style="stroke:#000000;stroke-width:1.5;"/><text fill="#000000" font-family="Helvetica" font-size="14" lengthAdjust="spacing" textLength="156.4199" x="678.4814" y="1052.2803">Ready and Drift Handling</text><rect fill="#F8FAFC" height="48" rx="8" ry="8" style="stroke:#0F172A;stroke-width:0.5;" width="296.2402" x="853.8152" y="1074.5"/><text fill="#0F172A" font-family="Helvetica" font-size="14" lengthAdjust="spacing" textLength="276.2402" x="863.8152" y="1095.2803">Compare live OCI state against the imported</text><text fill="#0F172A" font-family="Helvetica" font-size="14" lengthAdjust="spacing" textLength="75.4824" x="863.8152" y="1109.2803">field surface</text><rect fill="#F8FAFC" height="48" rx="8" ry="8" style="stroke:#0F172A;stroke-width:0.5;" width="302.4473" x="850.7117" y="1191.5"/><text fill="#0F172A" font-family="Helvetica" font-size="14" lengthAdjust="spacing" textLength="282.4473" x="860.7117" y="1212.2803">Reject drift before OCI mutation for force-new</text><text fill="#0F172A" font-family="Helvetica" font-size="14" lengthAdjust="spacing" textLength="136.9512" x="860.7117" y="1226.2803">fields compartment_id</text><ellipse cx="1001.9353" cy="1272" fill="none" rx="11" ry="11" style="stroke:#222222;stroke-width:1;"/><ellipse cx="1001.9353" cy="1272" fill="#222222" rx="6" ry="6" style="stroke:#222222;stroke-width:1;"/><polygon fill="#E2E8F0" points="876.3523,1142.5,1127.5183,1142.5,1139.5183,1154.5,1127.5183,1166.5,876.3523,1166.5,864.3523,1154.5,876.3523,1142.5" style="stroke:#1D4ED8;stroke-width:0.5;"/><text fill="#000000" font-family="Helvetica" font-size="14" lengthAdjust="spacing" textLength="21.7861" x="1005.9353" y="1177.2803">yes</text><text fill="#0F172A" font-family="Helvetica" font-size="14" lengthAdjust="spacing" textLength="251.166" x="876.3523" y="1158.2803">"Force-new or conflicting drift detected?"</text><polygon fill="#E2E8F0" points="891.5076,1325,1112.363,1325,1124.363,1337,1112.363,1349,891.5076,1349,879.5076,1337,891.5076,1325" style="stroke:#1D4ED8;stroke-width:0.5;"/><text fill="#0F172A" font-family="Helvetica" font-size="14" lengthAdjust="spacing" textLength="220.8555" x="891.5076" y="1340.7803">"Supported mutable drift detected?"</text><text fill="#000000" font-family="Helvetica" font-size="14" lengthAdjust="spacing" textLength="21.7861" x="857.7214" y="1333.7803">yes</text><text fill="#000000" font-family="Helvetica" font-size="14" lengthAdjust="spacing" textLength="15.5723" x="1124.363" y="1333.7803">no</text><rect fill="#F8FAFC" height="48" rx="8" ry="8" style="stroke:#0F172A;stroke-width:0.5;" width="328.9365" x="695.4814" y="1359"/><text fill="#0F172A" font-family="Helvetica" font-size="14" lengthAdjust="spacing" textLength="308.9365" x="705.4814" y="1379.7803">Apply UpdatePerformanceTuningAnalysis only for</text><text fill="#0F172A" font-family="Helvetica" font-size="14" lengthAdjust="spacing" textLength="176.6543" x="705.4814" y="1393.7803">mutable fields display_name</text><rect fill="#F8FAFC" height="34" rx="8" ry="8" style="stroke:#0F172A;stroke-width:0.5;" width="199.0059" x="1044.418" y="1359"/><text fill="#0F172A" font-family="Helvetica" font-size="14" lengthAdjust="spacing" textLength="179.0059" x="1054.418" y="1379.7803">Skip the no-op mutation path</text><polygon fill="#E2E8F0" points="1001.9353,1413,1013.9353,1425,1001.9353,1437,989.9353,1425,1001.9353,1413" style="stroke:#1D4ED8;stroke-width:0.5;"/><rect fill="#F8FAFC" height="118" rx="8" ry="8" style="stroke:#0F172A;stroke-width:0.5;" width="334.3164" x="834.7771" y="1457"/><text fill="#0F172A" font-family="Helvetica" font-size="14" lengthAdjust="spacing" textLength="164.2061" x="844.7771" y="1477.7803">Run provider helper hooks</text><text fill="#0F172A" font-family="Helvetica" font-size="14" lengthAdjust="spacing" textLength="219.0508" x="844.7771" y="1491.7803">create=tfresource.CreateResource,</text><text fill="#0F172A" font-family="Helvetica" font-size="14" lengthAdjust="spacing" textLength="314.3164" x="844.7771" y="1505.7803">tfresource.WaitForWorkRequestWithErrorHandling</text><text fill="#0F172A" font-family="Helvetica" font-size="14" lengthAdjust="spacing" textLength="215.5439" x="844.7771" y="1519.7803">entity=template action=CREATED;</text><text fill="#0F172A" font-family="Helvetica" font-size="14" lengthAdjust="spacing" textLength="226.085" x="844.7771" y="1533.7803">update=tfresource.UpdateResource;</text><text fill="#0F172A" font-family="Helvetica" font-size="14" lengthAdjust="spacing" textLength="273.5537" x="844.7771" y="1547.7803">delete=tfresource.DeleteResource when the</text><text fill="#0F172A" font-family="Helvetica" font-size="14" lengthAdjust="spacing" textLength="220.2334" x="844.7771" y="1561.7803">matching field-driven path executes</text><rect fill="#F8FAFC" height="34" rx="8" ry="8" style="stroke:#0F172A;stroke-width:0.5;" width="303.2197" x="850.3254" y="1595"/><text fill="#0F172A" font-family="Helvetica" font-size="14" lengthAdjust="spacing" textLength="283.2197" x="860.3254" y="1615.7803">Return success for the ACTIVE success state</text><rect fill="#F8FAFC" height="48" rx="8" ry="8" style="stroke:#0F172A;stroke-width:0.5;" width="279.1299" x="862.3704" y="1649"/><text fill="#0F172A" font-family="Helvetica" font-size="14" lengthAdjust="spacing" textLength="259.1299" x="872.3704" y="1669.7803">Project required status and finalizer policy</text><text fill="#0F172A" font-family="Helvetica" font-size="14" lengthAdjust="spacing" textLength="174.3027" x="872.3704" y="1683.7803">retain-until-confirmed-delete</text><rect fill="#F8FAFC" height="34" rx="8" ry="8" style="stroke:#0F172A;stroke-width:0.5;" width="313.4189" x="845.2258" y="1717"/><text fill="#0F172A" font-family="Helvetica" font-size="14" lengthAdjust="spacing" textLength="293.4189" x="855.2258" y="1737.7803">Requeue on provisioning, updating, terminating</text><path d="M701.8397,1773 L701.8397,1998 L681.8397,2002 L701.8397,2006 L701.8397,2231 A0,0 0 0 0 701.8397,2231 L1018.5214,2231 A0,0 0 0 0 1018.5214,2231 L1018.5214,1783 L1008.5214,1773 L701.8397,1773 A0,0 0 0 0 701.8397,1773" fill="#FFF7D6" style="stroke:#B45309;stroke-width:0.5;"/><path d="M1008.5214,1773 L1008.5214,1783 L1018.5214,1783 L1008.5214,1773" fill="#FFF7D6" style="stroke:#B45309;stroke-width:0.5;"/><text fill="#334155" font-family="Helvetica" font-size="14" lengthAdjust="spacing" textLength="101.165" x="707.8397" y="1788.7803">shared diagram:</text><text fill="#334155" font-family="Helvetica" font-size="14" lengthAdjust="spacing" textLength="284.7852" x="707.8397" y="1802.7803">shared/diagrams/shared-reconcile-activity.svg</text><text fill="#334155" font-family="Helvetica" font-size="14" lengthAdjust="spacing" textLength="265.3438" x="707.8397" y="1816.7803">Start from the shared reconcile activity and</text><text fill="#334155" font-family="Helvetica" font-size="14" lengthAdjust="spacing" textLength="273.8955" x="707.8397" y="1830.7803">specialize provider-backed CRUD, wait, and</text><text fill="#334155" font-family="Helvetica" font-size="14" lengthAdjust="spacing" textLength="182.875" x="707.8397" y="1844.7803">status-projection details here.</text><text fill="#334155" font-family="Helvetica" font-size="14" lengthAdjust="spacing" textLength="229.5371" x="707.8397" y="1858.7803">Controller-local activity diagrams add</text><text fill="#334155" font-family="Helvetica" font-size="14" lengthAdjust="spacing" textLength="238.8955" x="707.8397" y="1872.7803">list-lookup hints, secret policies, delete</text><text fill="#334155" font-family="Helvetica" font-size="14" lengthAdjust="spacing" textLength="200.0332" x="707.8397" y="1886.7803">handling, and open formal gaps.</text><text fill="#334155" font-family="Helvetica" font-size="14" lengthAdjust="spacing" textLength="281.709" x="707.8397" y="1900.7803">archetype batch: Generated service-manager</text><text fill="#334155" font-family="Helvetica" font-size="14" lengthAdjust="spacing" textLength="291.0469" x="707.8397" y="1914.7803">controllers specialize the shared reconcile path</text><text fill="#334155" font-family="Helvetica" font-size="14" lengthAdjust="spacing" textLength="189.8477" x="707.8397" y="1928.7803">with formal runtime ownership.</text><text fill="#334155" font-family="Helvetica" font-size="14" lengthAdjust="spacing" textLength="98.793" x="707.8397" y="1942.7803">service: jmsutils</text><text fill="#334155" font-family="Helvetica" font-size="14" lengthAdjust="spacing" textLength="200.7783" x="707.8397" y="1956.7803">slug: performancetuninganalysis</text><text fill="#334155" font-family="Helvetica" font-size="14" lengthAdjust="spacing" textLength="208.5439" x="707.8397" y="1970.7803">kind: PerformanceTuningAnalysis</text><text fill="#334155" font-family="Helvetica" font-size="14" lengthAdjust="spacing" textLength="241.2402" x="707.8397" y="1984.7803">archetype: generated-service-manager</text><text fill="#334155" font-family="Helvetica" font-size="14" lengthAdjust="spacing" textLength="156.4063" x="707.8397" y="1998.7803">status/finalizer: required /</text><text fill="#334155" font-family="Helvetica" font-size="14" lengthAdjust="spacing" textLength="174.3027" x="707.8397" y="2012.7803">retain-until-confirmed-delete</text><text fill="#334155" font-family="Helvetica" font-size="14" lengthAdjust="spacing" textLength="272.3984" x="707.8397" y="2026.7803">requeue: provisioning, updating, terminating</text><text fill="#334155" font-family="Helvetica" font-size="14" lengthAdjust="spacing" textLength="295.6816" x="707.8397" y="2040.7803">provider states: create PROVISIONING; update</text><text fill="#334155" font-family="Helvetica" font-size="14" lengthAdjust="spacing" textLength="192.165" x="707.8397" y="2054.7803">UPDATING; delete DELETING</text><text fill="#334155" font-family="Helvetica" font-size="14" lengthAdjust="spacing" textLength="183.6611" x="707.8397" y="2068.7803">supported drift: display_name</text><text fill="#334155" font-family="Helvetica" font-size="14" lengthAdjust="spacing" textLength="230.3301" x="707.8397" y="2082.7803">reject before mutate: force-new fields</text><text fill="#334155" font-family="Helvetica" font-size="14" lengthAdjust="spacing" textLength="100.3789" x="707.8397" y="2096.7803">compartment_id</text><text fill="#334155" font-family="Helvetica" font-size="14" lengthAdjust="spacing" textLength="144.751" x="707.8397" y="2110.7803">create-only fields: none</text><text fill="#334155" font-family="Helvetica" font-size="14" lengthAdjust="spacing" textLength="66.1445" x="707.8397" y="2124.7803">list lookup:</text><text fill="#334155" font-family="Helvetica" font-size="14" lengthAdjust="spacing" textLength="277.8057" x="707.8397" y="2138.7803">scaffold_jmsutils_performancetuninganalysis</text><text fill="#334155" font-family="Helvetica" font-size="14" lengthAdjust="spacing" textLength="175.8477" x="707.8397" y="2152.7803">filters compartment_id, state</text><text fill="#334155" font-family="Helvetica" font-size="14" lengthAdjust="spacing" textLength="89.4961" x="707.8397" y="2166.7803">conflicts: none</text><text fill="#334155" font-family="Helvetica" font-size="14" lengthAdjust="spacing" textLength="104.3164" x="707.8397" y="2180.7803">open gaps: none</text><text fill="#334155" font-family="Helvetica" font-size="14" lengthAdjust="spacing" textLength="224.9023" x="707.8397" y="2194.7803">Scaffold metadata only; replace with</text><text fill="#334155" font-family="Helvetica" font-size="14" lengthAdjust="spacing" textLength="244.3232" x="707.8397" y="2208.7803">controller-specific runtime states before</text><text fill="#334155" font-family="Helvetica" font-size="14" lengthAdjust="spacing" textLength="66.1445" x="707.8397" y="2222.7803">promotion.</text><ellipse cx="670.8397" cy="2002" fill="none" rx="11" ry="11" style="stroke:#222222;stroke-width:1;"/><ellipse cx="670.8397" cy="2002" fill="#222222" rx="6" ry="6" style="stroke:#222222;stroke-width:1;"/><line style="stroke:#0F172A;stroke-width:1;" x1="670.8397" x2="670.8397" y1="157" y2="177"/><polygon fill="#0F172A" points="666.8397,167,670.8397,177,674.8397,167,670.8397,171" style="stroke:#0F172A;stroke-width:1;"/><line style="stroke:#0F172A;stroke-width:1;" x1="822.3055" x2="822.3055" y1="341" y2="361"/><polygon fill="#0F172A" points="818.3055,351,822.3055,361,826.3055,351,822.3055,355" style="stroke:#0F172A;stroke-width:1;"/><line style="stroke:#0F172A;stroke-width:1;" x1="822.3055" x2="822.3055" y1="423" y2="443"/><polygon fill="#0F172A" points="818.3055,433,822.3055,443,826.3055,433,822.3055,437" style="stroke:#0F172A;stroke-width:1;"/><line style="stroke:#0F172A;stroke-width:1;" x1="529.3739" x2="519.3739" y1="257" y2="257"/><line style="stroke:#0F172A;stroke-width:1;" x1="519.3739" x2="519.3739" y1="257" y2="279"/><polygon fill="#0F172A" points="515.3739,269,519.3739,279,523.3739,269,519.3739,273" style="stroke:#0F172A;stroke-width:1;"/><line style="stroke:#0F172A;stroke-width:1;" x1="812.3055" x2="822.3055" y1="257" y2="257"/><line style="stroke:#0F172A;stroke-width:1;" x1="822.3055" x2="822.3055" y1="257" y2="279"/><polygon fill="#0F172A" points="818.3055,269,822.3055,279,826.3055,269,822.3055,273" style="stroke:#0F172A;stroke-width:1;"/><line style="stroke:#0F172A;stroke-width:1;" x1="519.3739" x2="519.3739" y1="327" y2="509"/><line style="stroke:#0F172A;stroke-width:1;" x1="519.3739" x2="658.8397" y1="509" y2="509"/><polygon fill="#0F172A" points="648.8397,505,658.8397,509,648.8397,513,652.8397,509" style="stroke:#0F172A;stroke-width:1;"/><line style="stroke:#0F172A;stroke-width:1;" x1="822.3055" x2="822.3055" y1="491" y2="509"/><line style="stroke:#0F172A;stroke-width:1;" x1="822.3055" x2="682.8397" y1="509" y2="509"/><polygon fill="#0F172A" points="692.8397,505,682.8397,509,692.8397,513,688.8397,509" style="stroke:#0F172A;stroke-width:1;"/><line style="stroke:#0F172A;stroke-width:1;" x1="670.8397" x2="670.8397" y1="225" y2="245"/><polygon fill="#0F172A" points="666.8397,235,670.8397,245,674.8397,235,670.8397,239" style="stroke:#0F172A;stroke-width:1;"/><line style="stroke:#0F172A;stroke-width:1;" x1="670.8397" x2="670.8397" y1="65" y2="109"/><polygon fill="#0F172A" points="666.8397,99,670.8397,109,674.8397,99,670.8397,103" style="stroke:#0F172A;stroke-width:1;"/><line style="stroke:#0F172A;stroke-width:1;" x1="339.7441" x2="339.7441" y1="711" y2="739.5"/><polygon fill="#0F172A" points="335.7441,729.5,339.7441,739.5,343.7441,729.5,339.7441,733.5" style="stroke:#0F172A;stroke-width:1;"/><line style="stroke:#0F172A;stroke-width:1;" x1="179.5718" x2="169.5718" y1="862.5" y2="862.5"/><line style="stroke:#0F172A;stroke-width:1;" x1="169.5718" x2="169.5718" y1="862.5" y2="884.5"/><polygon fill="#0F172A" points="165.5718,874.5,169.5718,884.5,173.5718,874.5,169.5718,878.5" style="stroke:#0F172A;stroke-width:1;"/><line style="stroke:#0F172A;stroke-width:1;" x1="499.9165" x2="509.9165" y1="862.5" y2="862.5"/><line style="stroke:#0F172A;stroke-width:1;" x1="509.9165" x2="509.9165" y1="862.5" y2="884.5"/><polygon fill="#0F172A" points="505.9165,874.5,509.9165,884.5,513.9165,874.5,509.9165,878.5" style="stroke:#0F172A;stroke-width:1;"/><line style="stroke:#0F172A;stroke-width:1;" x1="169.5718" x2="169.5718" y1="918.5" y2="950.5"/><line style="stroke:#0F172A;stroke-width:1;" x1="169.5718" x2="327.7441" y1="950.5" y2="950.5"/><polygon fill="#0F172A" points="317.7441,946.5,327.7441,950.5,317.7441,954.5,321.7441,950.5" style="stroke:#0F172A;stroke-width:1;"/><line style="stroke:#0F172A;stroke-width:1;" x1="509.9165" x2="509.9165" y1="932.5" y2="950.5"/><line style="stroke:#0F172A;stroke-width:1;" x1="509.9165" x2="351.7441" y1="950.5" y2="950.5"/><polygon fill="#0F172A" points="361.7441,946.5,351.7441,950.5,361.7441,954.5,357.7441,950.5" style="stroke:#0F172A;stroke-width:1;"/><line style="stroke:#0F172A;stroke-width:1;" x1="339.7441" x2="339.7441" y1="815.5" y2="850.5"/><polygon fill="#0F172A" points="335.7441,840.5,339.7441,850.5,343.7441,840.5,339.7441,844.5" style="stroke:#0F172A;stroke-width:1;"/><line style="stroke:#0F172A;stroke-width:1;" x1="339.7441" x2="339.7441" y1="962.5" y2="1008.5"/><polygon fill="#0F172A" points="335.7441,998.5,339.7441,1008.5,343.7441,998.5,339.7441,1002.5" style="stroke:#0F172A;stroke-width:1;"/><line style="stroke:#0F172A;stroke-width:1;" x1="1001.9353" x2="1001.9353" y1="718" y2="746.5"/><polygon fill="#0F172A" points="997.9353,736.5,1001.9353,746.5,1005.9353,736.5,1001.9353,740.5" style="stroke:#0F172A;stroke-width:1;"/><line style="stroke:#0F172A;stroke-width:1;" x1="1001.9353" x2="1001.9353" y1="645" y2="670"/><polygon fill="#0F172A" points="997.9353,660,1001.9353,670,1005.9353,660,1001.9353,664" style="stroke:#0F172A;stroke-width:1;"/><line style="stroke:#0F172A;stroke-width:1;" x1="1100.2185" x2="1152.2317" y1="633" y2="633"/><polygon fill="#0F172A" points="1148.2317,709.5,1152.2317,719.5,1156.2317,709.5,1152.2317,713.5" style="stroke:#0F172A;stroke-width:1;"/><line style="stroke:#0F172A;stroke-width:1;" x1="1152.2317" x2="1152.2317" y1="633" y2="799.5"/><line style="stroke:#0F172A;stroke-width:1;" x1="1152.2317" x2="1001.9353" y1="799.5" y2="799.5"/><line style="stroke:#0F172A;stroke-width:1;" x1="1001.9353" x2="1001.9353" y1="799.5" y2="834.5"/><polygon fill="#0F172A" points="997.9353,824.5,1001.9353,834.5,1005.9353,824.5,1001.9353,828.5" style="stroke:#0F172A;stroke-width:1;"/><line style="stroke:#0F172A;stroke-width:1;" x1="1001.9353" x2="1001.9353" y1="931.5" y2="966.5"/><polygon fill="#0F172A" points="997.9353,956.5,1001.9353,966.5,1005.9353,956.5,1001.9353,960.5" style="stroke:#0F172A;stroke-width:1;"/><line style="stroke:#0F172A;stroke-width:1;" x1="1001.9353" x2="1001.9353" y1="858.5" y2="883.5"/><polygon fill="#0F172A" points="997.9353,873.5,1001.9353,883.5,1005.9353,873.5,1001.9353,877.5" style="stroke:#0F172A;stroke-width:1;"/><line style="stroke:#0F172A;stroke-width:1;" x1="1134.4563" x2="1158.8933" y1="846.5" y2="846.5"/><polygon fill="#0F172A" points="1154.8933,923,1158.8933,933,1162.8933,923,1158.8933,927" style="stroke:#0F172A;stroke-width:1;"/><line style="stroke:#0F172A;stroke-width:1;" x1="1158.8933" x2="1158.8933" y1="846.5" y2="1010.5"/><line style="stroke:#0F172A;stroke-width:1;" x1="1158.8933" x2="1001.9353" y1="1010.5" y2="1010.5"/><line style="stroke:#0F172A;stroke-width:1;" x1="1001.9353" x2="1001.9353" y1="1010.5" y2="1074.5"/><polygon fill="#0F172A" points="997.9353,1064.5,1001.9353,1074.5,1005.9353,1064.5,1001.9353,1068.5" style="stroke:#0F172A;stroke-width:1;"/><line style="stroke:#0F172A;stroke-width:1;" x1="1001.9353" x2="1001.9353" y1="1239.5" y2="1261"/><polygon fill="#0F172A" points="997.9353,1251,1001.9353,1261,1005.9353,1251,1001.9353,1255" style="stroke:#0F172A;stroke-width:1;"/><line style="stroke:#0F172A;stroke-width:1;" x1="1001.9353" x2="1001.9353" y1="1166.5" y2="1191.5"/><polygon fill="#0F172A" points="997.9353,1181.5,1001.9353,1191.5,1005.9353,1181.5,1001.9353,1185.5" style="stroke:#0F172A;stroke-width:1;"/><line style="stroke:#0F172A;stroke-width:1;" x1="1139.5183" x2="1163.1589" y1="1154.5" y2="1154.5"/><polygon fill="#0F172A" points="1159.1589,1231,1163.1589,1241,1167.1589,1231,1163.1589,1235" style="stroke:#0F172A;stroke-width:1;"/><line style="stroke:#0F172A;stroke-width:1;" x1="1163.1589" x2="1163.1589" y1="1154.5" y2="1305"/><line style="stroke:#0F172A;stroke-width:1;" x1="1163.1589" x2="1001.9353" y1="1305" y2="1305"/><line style="stroke:#0F172A;stroke-width:1;" x1="1001.9353" x2="1001.9353" y1="1305" y2="1325"/><polygon fill="#0F172A" points="997.9353,1315,1001.9353,1325,1005.9353,1315,1001.9353,1319" style="stroke:#0F172A;stroke-width:1;"/><line style="stroke:#0F172A;stroke-width:1;" x1="1001.9353" x2="1001.9353" y1="1122.5" y2="1142.5"/><polygon fill="#0F172A" points="997.9353,1132.5,1001.9353,1142.5,1005.9353,1132.5,1001.9353,1136.5" style="stroke:#0F172A;stroke-width:1;"/><line style="stroke:#0F172A;stroke-width:1;" x1="879.5076" x2="859.9497" y1="1337" y2="1337"/><line style="stroke:#0F172A;stroke-width:1;" x1="859.9497" x2="859.9497" y1="1337" y2="1359"/><polygon fill="#0F172A" points="855.9497,1349,859.9497,1359,863.9497,1349,859.9497,1353" style="stroke:#0F172A;stroke-width:1;"/><line style="stroke:#0F172A;stroke-width:1;" x1="1124.363" x2="1143.9209" y1="1337" y2="1337"/><line style="stroke:#0F172A;stroke-width:1;" x1="1143.9209" x2="1143.9209" y1="1337" y2="1359"/><polygon fill="#0F172A" points="1139.9209,1349,1143.9209,1359,1147.9209,1349,1143.9209,1353" style="stroke:#0F172A;stroke-width:1;"/><line style="stroke:#0F172A;stroke-width:1;" x1="859.9497" x2="859.9497" y1="1407" y2="1425"/><line style="stroke:#0F172A;stroke-width:1;" x1="859.9497" x2="989.9353" y1="1425" y2="1425"/><polygon fill="#0F172A" points="979.9353,1421,989.9353,1425,979.9353,1429,983.9353,1425" style="stroke:#0F172A;stroke-width:1;"/><line style="stroke:#0F172A;stroke-width:1;" x1="1143.9209" x2="1143.9209" y1="1393" y2="1425"/><line style="stroke:#0F172A;stroke-width:1;" x1="1143.9209" x2="1013.9353" y1="1425" y2="1425"/><polygon fill="#0F172A" points="1023.9353,1421,1013.9353,1425,1023.9353,1429,1019.9353,1425" style="stroke:#0F172A;stroke-width:1;"/><line style="stroke:#0F172A;stroke-width:1;" x1="1001.9353" x2="1001.9353" y1="1437" y2="1457"/><polygon fill="#0F172A" points="997.9353,1447,1001.9353,1457,1005.9353,1447,1001.9353,1451" style="stroke:#0F172A;stroke-width:1;"/><line style="stroke:#0F172A;stroke-width:1;" x1="1001.9353" x2="1001.9353" y1="1575" y2="1595"/><polygon fill="#0F172A" points="997.9353,1585,1001.9353,1595,1005.9353,1585,1001.9353,1589" style="stroke:#0F172A;stroke-width:1;"/><line style="stroke:#0F172A;stroke-width:1;" x1="1001.9353" x2="1001.9353" y1="1629" y2="1649"/><polygon fill="#0F172A" points="997.9353,1639,1001.9353,1649,1005.9353,1639,1001.9353,1643" style="stroke:#0F172A;stroke-width:1;"/><line style="stroke:#0F172A;stroke-width:1;" x1="1001.9353" x2="1001.9353" y1="1697" y2="1717"/><polygon fill="#0F172A" points="997.9353,1707,1001.9353,1717,1005.9353,1707,1001.9353,1711" style="stroke:#0F172A;stroke-width:1;"/><line style="stroke:#0F172A;stroke-width:1;" x1="596.6635" x2="339.7441" y1="565" y2="565"/><line style="stroke:#0F172A;stroke-width:1;" x1="339.7441" x2="339.7441" y1="565" y2="621"/><polygon fill="#0F172A" points="335.7441,611,339.7441,621,343.7441,611,339.7441,615" style="stroke:#0F172A;stroke-width:1;"/><line style="stroke:#0F172A;stroke-width:1;" x1="745.016" x2="1001.9353" y1="565" y2="565"/><line style="stroke:#0F172A;stroke-width:1;" x1="1001.9353" x2="1001.9353" y1="565" y2="621"/><polygon fill="#0F172A" points="997.9353,611,1001.9353,621,1005.9353,611,1001.9353,615" style="stroke:#0F172A;stroke-width:1;"/><line style="stroke:#0F172A;stroke-width:1;" x1="1001.9353" x2="1001.9353" y1="1751" y2="1768"/><line style="stroke:#0F172A;stroke-width:1;" x1="1001.9353" x2="670.8397" y1="1768" y2="1768"/><line style="stroke:#0F172A;stroke-width:1;" x1="670.8397" x2="670.8397" y1="1768" y2="1991"/><polygon fill="#0F172A" points="666.8397,1981,670.8397,1991,674.8397,1981,670.8397,1985" style="stroke:#0F172A;stroke-width:1;"/><line style="stroke:#0F172A;stroke-width:1;" x1="670.8397" x2="670.8397" y1="521" y2="553"/><polygon fill="#0F172A" points="666.8397,543,670.8397,553,674.8397,543,670.8397,547" style="stroke:#0F172A;stroke-width:1;"/><?plantuml-src bLVRRjiu47tNLn3PbnQ8awPDBokZMAHEsWOecY19snS30IsDR3OKgIKffzv5_tqFBv9bvz8kWY2IE1pEd3bpEB4tGZNSy9hP1I_rhL1pLd5fARFzoemNDtEZMrLEjDI6_L4L-2a75YLLl9NklLRkCw-9VIIv92SAVh_DfVY7sC7XO94Res-JzsVLmUldmvrAEtft9uQgUbs-shRIfYIJB6Q7Bryy-tFBmX-Vrb-yE3nu-NAm7jmNsYWoxE1LveIJn8uA9vR2hTY8VQzjwuIq--TaAcrghWgwQXKWEr9ShgommuowVVzcx1u4trIyAlpACEAKEMFLEih-MobuhLLv1mXwJc-gPmE3eSU3yf3AD-l5z_SujeuRjsrFlV_URiQtlFxCmjOC2GCheHNREPjPCajYN9NidL3b3jBFBxqLgumE93DKiahgswcAB_i8RGx4x7vy7nagj2g4f567uPvTpiTPVa6y18siy2uUh06p3HMxK-KCa88XOdIjtGqXbIJ94HFAaNBZJ5JioSvLiaDYzAEHeX2EdKrEcIXXumlO6B9u_6ldANCBKkp9YkpJBFz0ph-peZK6os4FB7Lh2c9BmQSA5Wz6ESu8JSQUAFtK9sQr3AWX166TRy8DTsw1YiyNK_K9gmzdtjhGla8wCdQg2btxqjI8xbgKkm490euJGtW8mTyDEYu-VCQjXq3fgJBKMZv3XzJS5Gk6fSgp4lwn6POH7HDJ2_0MmNMvWUuKpfrEHG8egXGLY1KgSnohPUZlbYmsRbLWGBje6SYMDZNSBO070ORuvP6C14pz8PvNKmKKs6ELGoQ_gWCIEZxvT79rSkoBe2e1An-enpw-HYRws7_9bDyuhmMKqiFggyAB1Tdk_F46aeKahjecj48bi1iwR90wFeEBjYqAkeCoo5dhPMJBUW-lGB6kdJpFOZORh4RRhzXCwj1TCSGk092Xz-LZtWXWG0FhT3DmEQZu9r5HiO8_Df7SMb7Xil4hdWCXPK-oG7XqEr9qPXN8QidTJJ3mA_Ai9J0SsfCwe-P2MNYOglEBiw-dbwTddqy_VzXbNywFZwx2Km0QJ-CKR8XyEm8KiNKMd8yvMb24cpavUpSMrnhbXQ1LoRHg9UibqVSJBj48vrJ586F5ZoPNfrzFDiBuEKJCg-SgbFxOYCgnZtYKO57ecacG2c9IB6FgCN0-z_d7JXPreutp7L89aj3LrbIyeCImzneACb9q6neT98UG1Xqhms4bU5Au-yZr7T-JqOp0xtXytRfGJcYAyR_HTphQiarbkmlzPTl4O8CZN_V7mpXg6hbYNvhoKUdJ2aQLRyVEQmgd5BQHV7MjCFjiji2DQ09uIezqiyxAgrF7yloYnGUZbw27OGkIZV-ZzOrNyA2ORrtLQVHUbEUBzEglkVNQDoumNfblsjmaJd-3j9rWj39TiQSgokvRH-ZPKEB2H_HsSd5ovFLYYlOijywCk7HdmYJs_T0a2and4Yy9v0sa_EKGRoL0DK8PbXJpnrL7HUl8ZdlQTytXY-vHYvJkFtVtrxdHWJMTPgVROqlM6WqAhhowE91u53fcbDGOKqRCOPpQ7sslKnKiu430kom04PwWTJNy-fSncYhMBN3EZvJCYFd2PMcqITDCdlslwIORp4W-y-HitVVzE8aaCp_XY91cJvpHB4unauilnxli5apOZQO1cb4J8VFSApqUqe9fXlOot4VEQ2dX0KhDvVgWBd36opAJk7zWe6yWtYYdmpnb2Unq4MP1-10HpHQ9Qd7YqWs59gxXUiuRkvTn0xboguOmK88REIvR3DnXCF2peq2he_dud4nMzC75gIxbV2z0db9PkChJQSPN7F-Bw5kujmlHx6N9VzvFyfcLxJndpRhbNMXvtitp6EVB_E5PSvrCpkPT6gFjD68DzdjgvclcxcUFqZDBTrB-EzJCUX49ZMBpD72nuTKrZdifwswmSNUBTnTPPdln3AAPRyWR8WgzbxGwA1h2woKwIMAsgT1PZ6GK5JHOvD14HO5OB18BBLFmgjAolExgS_rmPTAKo-uTShFk1kgE2JJq_4llb-aaLWD-uC63k8zH66Jg1Gn46j1l5DY76QDdLOGumU2HhxNlhZql3k4VpVy0?></g></svg>